<svg width="48" height="15" viewBox="0 0 48 15" fill="none" xmlns="http://www.w3.org/2000/svg">
<path d="M1.31503e-06 14.0577V5.42402e-06H4.69233C6.21138 5.42402e-06 7.38285 0.379769 8.20675 1.13929C9.03708 1.89882 9.45224 2.92547 9.45224 4.21924C9.45224 5.51944 9.03708 6.55897 8.20675 7.3378C7.37642 8.11664 6.20173 8.50606 4.68267 8.50606H2.17238V14.0577H1.31503e-06ZM2.17238 6.82609H4.62474C5.60955 6.82609 6.29828 6.58149 6.69091 6.09231C7.08355 5.59668 7.27987 4.97876 7.27987 4.23855C7.27987 3.4919 7.08355 2.88363 6.69091 2.41375C6.29828 1.93744 5.60955 1.69928 4.62474 1.69928H2.17238V6.82609ZM7.73365 14.0577L4.37371 7.58883L6.57505 7.3378L10.1571 14.0577H7.73365ZM11.1805 9.21087V8.90191C11.1805 7.38286 11.6085 6.15024 12.4646 5.20405C13.3271 4.25786 14.4567 3.78476 15.8535 3.78476C17.2438 3.78476 18.322 4.22889 19.0879 5.11715C19.8539 5.99898 20.2369 7.20585 20.2369 8.73778V9.53914H12.5129V8.04262H18.1321V7.83021C18.1385 7.16723 17.9486 6.6008 17.5624 6.13093C17.1827 5.65461 16.6259 5.41646 15.8921 5.41646C15.0296 5.41646 14.3827 5.74151 13.9515 6.39161C13.5202 7.03528 13.3046 7.85273 13.3046 8.84398V9.25915C13.3046 10.2504 13.5331 11.0711 13.9901 11.7212C14.4535 12.3648 15.1519 12.6867 16.0852 12.6867C16.6903 12.6867 17.2084 12.5515 17.6397 12.2812C18.0709 12.0108 18.4217 11.689 18.6921 11.3157L20.1307 12.3198C19.8153 12.8476 19.3132 13.3175 18.6245 13.7294C17.9358 14.1349 17.0958 14.3377 16.1045 14.3377C14.534 14.3377 13.3207 13.8646 12.4646 12.9184C11.6085 11.9722 11.1805 10.7364 11.1805 9.21087ZM21.6272 11.026L23.703 11.0357V11.1322C23.703 11.6858 23.8961 12.0945 24.2823 12.3584C24.675 12.6223 25.1963 12.7543 25.8464 12.7543C26.4965 12.7543 27.0018 12.6287 27.3623 12.3777C27.7291 12.1267 27.9126 11.7888 27.9126 11.3639C27.9126 10.9456 27.7517 10.6302 27.4298 10.4177C27.108 10.2053 26.4129 9.97683 25.3444 9.73224C24.2308 9.47477 23.3747 9.1111 22.7761 8.64123C22.184 8.17135 21.8879 7.52768 21.8879 6.71023C21.8879 5.84128 22.2419 5.13646 22.9499 4.59578C23.658 4.0551 24.6074 3.78476 25.7981 3.78476C26.9889 3.78476 27.9448 4.05832 28.6657 4.60544C29.3866 5.15255 29.747 5.90243 29.747 6.85505V6.94195H27.6809V6.81643C27.6809 6.35943 27.5264 6.00541 27.2174 5.75438C26.9085 5.49692 26.4322 5.36818 25.7885 5.36818C25.1577 5.36818 24.6943 5.48082 24.3982 5.70611C24.1021 5.93139 23.954 6.22426 23.954 6.58471C23.954 6.94517 24.1278 7.22838 24.4754 7.43435C24.823 7.64032 25.531 7.86561 26.5995 8.1102C27.7131 8.36123 28.5563 8.7249 29.1291 9.20122C29.702 9.67753 29.9884 10.3502 29.9884 11.2191C29.9884 12.1589 29.6408 12.9152 28.9457 13.488C28.2505 14.0545 27.2207 14.3377 25.8561 14.3377C24.4915 14.3377 23.4455 14.0512 22.7182 13.4784C21.9909 12.8991 21.6272 12.1106 21.6272 11.1129V11.026ZM31.4753 9.21087V8.90191C31.4753 7.38286 31.9033 6.15024 32.7594 5.20405C33.6219 4.25786 34.7515 3.78476 36.1483 3.78476C37.5386 3.78476 38.6168 4.22889 39.3827 5.11715C40.1487 5.99898 40.5317 7.20585 40.5317 8.73778V9.53914H32.8077V8.04262H38.4269V7.83021C38.4333 7.16723 38.2434 6.6008 37.8572 6.13093C37.4775 5.65461 36.9207 5.41646 36.1869 5.41646C35.3244 5.41646 34.6775 5.74151 34.2463 6.39161C33.815 7.03528 33.5994 7.85273 33.5994 8.84398V9.25915C33.5994 10.2504 33.8279 11.0711 34.2849 11.7212C34.7483 12.3648 35.4467 12.6867 36.38 12.6867C36.9851 12.6867 37.5032 12.5515 37.9345 12.2812C38.3657 12.0108 38.7165 11.689 38.9869 11.3157L40.4255 12.3198C40.1101 12.8476 39.608 13.3175 38.9193 13.7294C38.2306 14.1349 37.3906 14.3377 36.3993 14.3377C34.8288 14.3377 33.6155 13.8646 32.7594 12.9184C31.9033 11.9722 31.4753 10.7364 31.4753 9.21087ZM41.2075 5.64818V4.06476H47.0874V5.64818H41.2075ZM42.8971 11.3929V4.9144V4.65371V1.48687H44.9923V11.335C44.9923 11.8242 45.0824 12.1621 45.2626 12.3487C45.4428 12.5354 45.7132 12.6287 46.0736 12.6287C46.241 12.6287 46.4051 12.6126 46.566 12.5805C46.7334 12.5418 46.8975 12.4904 47.0584 12.426V14.0577C46.904 14.1285 46.6916 14.1928 46.4212 14.2508C46.1509 14.3087 45.8548 14.3377 45.533 14.3377C44.7284 14.3377 44.0879 14.1027 43.6116 13.6329C43.1353 13.163 42.8971 12.4163 42.8971 11.3929Z" fill="#471515"/>
</svg>
