<svg width="57" height="18" viewBox="0 0 57 18" fill="none" xmlns="http://www.w3.org/2000/svg">
<path d="M0 17.0625V0H5.63672C7.44922 0 8.84766 0.460937 9.83203 1.38281C10.8242 2.30469 11.3203 3.54688 11.3203 5.10938C11.3203 6.67969 10.8242 7.94141 9.83203 8.89453C8.83984 9.83984 7.44141 10.3125 5.63672 10.3125H2.58984V17.0625H0ZM2.58984 8.30859H5.53125C6.71875 8.30859 7.54688 8.00781 8.01562 7.40625C8.48438 6.80469 8.72266 6.04688 8.73047 5.13281C8.73047 4.22656 8.49219 3.48438 8.01562 2.90625C7.54688 2.32813 6.71875 2.03516 5.53125 2.02734H2.58984V8.30859ZM9.25781 17.0625L5.21484 9.22266L7.82812 8.90625L12.1523 17.0625H9.25781ZM13.3125 11.2617V10.8867C13.3125 9.05859 13.8281 7.58203 14.8594 6.45703C15.8906 5.32422 17.2422 4.75781 18.9141 4.75781C20.5859 4.75781 21.8789 5.28906 22.793 6.35156C23.707 7.40625 24.1641 8.85156 24.1641 10.6875V11.625H14.8828V9.85547H21.6562V9.62109C21.6562 8.82422 21.4297 8.14062 20.9766 7.57031C20.5234 6.99219 19.8477 6.70312 18.9492 6.70312C17.918 6.70312 17.1406 7.08984 16.6172 7.86328C16.1016 8.62891 15.8438 9.60938 15.8438 10.8047V11.3086C15.8438 12.5039 16.1211 13.4922 16.6758 14.2734C17.2305 15.0469 18.0664 15.4336 19.1836 15.4336C19.9023 15.4336 20.5195 15.2734 21.0352 14.9531C21.5586 14.625 21.9805 14.2344 22.3008 13.7812L24.0352 14.9648C23.668 15.6055 23.0703 16.1719 22.2422 16.6641C21.4141 17.1484 20.3984 17.3906 19.1953 17.3906C17.3203 17.3906 15.8711 16.8281 14.8477 15.7031C13.8242 14.5703 13.3125 13.0898 13.3125 11.2617ZM25.8164 13.418L28.2773 13.4297V13.5586C28.2773 14.2305 28.5117 14.7266 28.9805 15.0469C29.4492 15.3594 30.0742 15.5156 30.8555 15.5156C31.6445 15.5156 32.2539 15.3672 32.6836 15.0703C33.1211 14.7656 33.3398 14.3594 33.3398 13.8516C33.3398 13.3438 33.1445 12.9609 32.7539 12.7031C32.3633 12.4375 31.5312 12.1602 30.2578 11.8711C28.9219 11.5664 27.8984 11.1328 27.1875 10.5703C26.4844 10.0078 26.1328 9.23438 26.1328 8.25C26.1328 7.20312 26.5547 6.35938 27.3984 5.71875C28.2422 5.07812 29.3789 4.75781 30.8086 4.75781C32.2383 4.75781 33.3828 5.08594 34.2422 5.74219C35.1094 6.39062 35.543 7.28516 35.543 8.42578V8.54297H33.082V8.39062C33.082 7.82031 32.8945 7.38672 32.5195 7.08984C32.1445 6.78516 31.5703 6.63281 30.7969 6.63281C30.0391 6.63281 29.4844 6.76953 29.1328 7.04297C28.7812 7.30859 28.6055 7.66406 28.6055 8.10938C28.6055 8.53906 28.8125 8.87891 29.2266 9.12891C29.6406 9.37891 30.4805 9.64844 31.7461 9.9375C33.082 10.2422 34.0977 10.6797 34.793 11.25C35.4883 11.8125 35.8359 12.6172 35.8359 13.6641C35.8359 14.7891 35.418 15.6914 34.582 16.3711C33.7461 17.0508 32.5078 17.3906 30.8672 17.3906C29.2344 17.3906 27.9844 17.0469 27.1172 16.3594C26.2578 15.6719 25.8281 14.7305 25.8281 13.5352L25.8164 13.418ZM37.5938 11.2617V10.8867C37.5938 9.05859 38.1094 7.58203 39.1406 6.45703C40.1719 5.32422 41.5234 4.75781 43.1953 4.75781C44.8672 4.75781 46.1602 5.28906 47.0742 6.35156C47.9883 7.40625 48.4453 8.85156 48.4453 10.6875V11.625H39.1641V9.85547H45.9375V9.62109C45.9375 8.82422 45.7109 8.14062 45.2578 7.57031C44.8047 6.99219 44.1289 6.70312 43.2305 6.70312C42.1992 6.70312 41.4219 7.08984 40.8984 7.86328C40.3828 8.62891 40.125 9.60938 40.125 10.8047V11.3086C40.125 12.5039 40.4023 13.4922 40.957 14.2734C41.5117 15.0469 42.3477 15.4336 43.4648 15.4336C44.1836 15.4336 44.8008 15.2734 45.3164 14.9531C45.8398 14.625 46.2617 14.2344 46.582 13.7812L48.3164 14.9648C47.9492 15.6055 47.3516 16.1719 46.5234 16.6641C45.6953 17.1484 44.6797 17.3906 43.4766 17.3906C41.6016 17.3906 40.1523 16.8281 39.1289 15.7031C38.1055 14.5703 37.5938 13.0898 37.5938 11.2617ZM49.2305 6.99609V5.08594H56.3086V6.99609H49.2305ZM51.2578 13.8398V6.05859L51.2695 5.76562V1.86328H53.7656V13.7461C53.7656 14.3633 53.875 14.7852 54.0938 15.0117C54.3125 15.2383 54.6445 15.3516 55.0898 15.3516C55.293 15.3516 55.4922 15.332 55.6875 15.293C55.8828 15.2539 56.0781 15.1953 56.2734 15.1172V17.0625C56.0781 17.1484 55.8203 17.2227 55.5 17.2852C55.1797 17.3555 54.8203 17.3906 54.4219 17.3906C53.4609 17.3906 52.6914 17.1094 52.1133 16.5469C51.543 15.9844 51.2578 15.082 51.2578 13.8398Z" fill="#14401D"/>
</svg>
