<svg width="80" height="80" viewBox="0 0 80 80" fill="none" xmlns="http://www.w3.org/2000/svg">
<path d="M55.65 40C55.6515 40.3352 55.5688 40.6654 55.4093 40.9603C55.2499 41.2552 55.0189 41.5052 54.7375 41.6875L43.5875 48.85C43.2849 49.0461 42.935 49.1567 42.5747 49.1701C42.2144 49.1836 41.8572 49.0994 41.5408 48.9265C41.2244 48.7536 40.9607 48.4984 40.7775 48.1878C40.5943 47.8773 40.4984 47.523 40.5 47.1625V41.8375L29.5875 48.85C29.2849 49.0461 28.935 49.1567 28.5747 49.1701C28.2144 49.1836 27.8572 49.0994 27.5408 48.9265C27.2244 48.7536 26.9607 48.4984 26.7775 48.1878C26.5943 47.8773 26.4984 47.523 26.5 47.1625V32.8375C26.4984 32.477 26.5943 32.1227 26.7775 31.8122C26.9607 31.5017 27.2244 31.2464 27.5408 31.0735C27.8572 30.9006 28.2144 30.8164 28.5747 30.8299C28.935 30.8434 29.2849 30.954 29.5875 31.15L40.5 38.1625V32.8375C40.4984 32.477 40.5943 32.1227 40.7775 31.8122C40.9607 31.5017 41.2244 31.2464 41.5408 31.0735C41.8572 30.9006 42.2144 30.8164 42.5747 30.8299C42.935 30.8434 43.2849 30.954 43.5875 31.15L54.7375 38.3125C55.0189 38.4948 55.2499 38.7448 55.4093 39.0397C55.5688 39.3346 55.6515 39.6648 55.65 40Z" fill="#471515"/>
</svg>
