<svg width="136" height="48" viewBox="0 0 136 48" fill="none" xmlns="http://www.w3.org/2000/svg">
<rect x="1" y="1" width="134" height="46" rx="23" fill="#FF4C4C" fill-opacity="0.15"/>
<rect x="1" y="1" width="134" height="46" rx="23" stroke="#471515" stroke-width="2"/>
<path d="M47 24.5C47.0001 23.1753 46.6242 21.8777 45.9162 20.7581C45.2081 19.6385 44.1969 18.7428 43 18.175V17C42.9991 15.7114 42.5834 14.4574 41.8144 13.4234C41.0454 12.3895 39.9639 11.6306 38.73 11.259C37.4962 10.8874 36.1755 10.923 34.9634 11.3604C33.7513 11.7977 32.7123 12.6137 32 13.6875C31.2877 12.6137 30.2486 11.7977 29.0365 11.3604C27.8244 10.923 26.5037 10.8874 25.2699 11.259C24.036 11.6306 22.9546 12.3895 22.1856 13.4234C21.4166 14.4574 21.0008 15.7114 21 17V18.175C19.8029 18.7426 18.7915 19.6383 18.0832 20.7579C17.375 21.8776 16.999 23.1752 16.999 24.5C16.999 25.8249 17.375 27.1225 18.0832 28.2421C18.7915 29.3618 19.8029 30.2574 21 30.825V31C21.0008 32.2886 21.4166 33.5427 22.1856 34.5766C22.9546 35.6106 24.036 36.3695 25.2699 36.7411C26.5037 37.1126 27.8244 37.0771 29.0365 36.6397C30.2486 36.2023 31.2877 35.3864 32 34.3125C32.7123 35.3864 33.7513 36.2023 34.9634 36.6397C36.1755 37.0771 37.4962 37.1126 38.73 36.7411C39.9639 36.3695 41.0454 35.6106 41.8144 34.5766C42.5834 33.5427 42.9991 32.2886 43 31V30.825C44.1959 30.2561 45.2063 29.3601 45.9142 28.2407C46.6221 27.1214 46.9986 25.8244 47 24.5ZM27 35C26.0131 34.9995 25.0613 34.6341 24.3275 33.9741C23.5937 33.3142 23.1298 32.4063 23.025 31.425C23.3475 31.4758 23.6735 31.5009 24 31.5H25C25.2652 31.5 25.5195 31.3947 25.7071 31.2071C25.8946 31.0196 26 30.7652 26 30.5C26 30.2348 25.8946 29.9805 25.7071 29.7929C25.5195 29.6054 25.2652 29.5 25 29.5H24C22.8216 29.498 21.6818 29.0799 20.7817 28.3195C19.8816 27.559 19.279 26.5051 19.0801 25.3436C18.8813 24.1822 19.0991 22.9878 19.6951 21.9713C20.291 20.9547 21.2269 20.1813 22.3375 19.7875C22.5318 19.7159 22.6995 19.5865 22.818 19.4166C22.9364 19.2467 22.9999 19.0446 23 18.8375V17C23 15.9392 23.4214 14.9217 24.1715 14.1716C24.9217 13.4215 25.9391 13 27 13C28.0608 13 29.0782 13.4215 29.8284 14.1716C30.5785 14.9217 31 15.9392 31 17V26.5375C29.9052 25.5439 28.4784 24.9955 27 25C26.7347 25 26.4804 25.1054 26.2929 25.2929C26.1053 25.4805 26 25.7348 26 26C26 26.2652 26.1053 26.5196 26.2929 26.7071C26.4804 26.8947 26.7347 27 27 27C28.0608 27 29.0782 27.4215 29.8284 28.1716C30.5785 28.9217 31 29.9392 31 31C31 32.0609 30.5785 33.0783 29.8284 33.8285C29.0782 34.5786 28.0608 35 27 35ZM40 29.5H39C38.7348 29.5 38.4804 29.6054 38.2929 29.7929C38.1053 29.9805 38 30.2348 38 30.5C38 30.7652 38.1053 31.0196 38.2929 31.2071C38.4804 31.3947 38.7348 31.5 39 31.5H40C40.3264 31.5009 40.6525 31.4758 40.975 31.425C40.8928 32.1938 40.5897 32.9222 40.1022 33.5222C39.6147 34.1223 38.9638 34.5682 38.2282 34.806C37.4926 35.0439 36.7038 35.0634 35.9573 34.8624C35.2108 34.6613 34.5386 34.2482 34.0219 33.6731C33.5053 33.098 33.1664 32.3855 33.0462 31.6217C32.9261 30.858 33.0298 30.0759 33.3449 29.3699C33.6599 28.6639 34.1728 28.0643 34.8215 27.6438C35.4702 27.2232 36.2269 26.9996 37 27C37.2652 27 37.5195 26.8947 37.7071 26.7071C37.8946 26.5196 38 26.2652 38 26C38 25.7348 37.8946 25.4805 37.7071 25.2929C37.5195 25.1054 37.2652 25 37 25C35.5215 24.9955 34.0948 25.5439 33 26.5375V17C33 15.9392 33.4214 14.9217 34.1715 14.1716C34.9217 13.4215 35.9391 13 37 13C38.0608 13 39.0782 13.4215 39.8284 14.1716C40.5785 14.9217 41 15.9392 41 17V18.8375C41 19.0446 41.0635 19.2467 41.182 19.4166C41.3004 19.5865 41.4681 19.7159 41.6625 19.7875C42.7731 20.1813 43.7089 20.9547 44.3048 21.9713C44.9008 22.9878 45.1186 24.1822 44.9198 25.3436C44.721 26.5051 44.1183 27.559 43.2182 28.3195C42.3181 29.0799 41.1783 29.498 40 29.5ZM23.5 24C23.2347 24 22.9804 23.8947 22.7929 23.7071C22.6053 23.5196 22.5 23.2652 22.5 23C22.5 22.7348 22.6053 22.4805 22.7929 22.2929C22.9804 22.1054 23.2347 22 23.5 22C24.162 21.9967 24.796 21.7323 25.2641 21.2642C25.7322 20.796 25.9967 20.1621 26 19.5V18.5C26 18.2348 26.1053 17.9805 26.2929 17.7929C26.4804 17.6054 26.7347 17.5 27 17.5C27.2652 17.5 27.5195 17.6054 27.7071 17.7929C27.8946 17.9805 28 18.2348 28 18.5V19.5C28 20.6935 27.5259 21.8381 26.6819 22.682C25.838 23.5259 24.6934 24 23.5 24ZM41.5 23C41.5 23.2652 41.3946 23.5196 41.2071 23.7071C41.0195 23.8947 40.7652 24 40.5 24C39.3065 24 38.1619 23.5259 37.318 22.682C36.4741 21.8381 36 20.6935 36 19.5V18.5C36 18.2348 36.1053 17.9805 36.2929 17.7929C36.4804 17.6054 36.7348 17.5 37 17.5C37.2652 17.5 37.5195 17.6054 37.7071 17.7929C37.8946 17.9805 38 18.2348 38 18.5V19.5C38.0033 20.1621 38.2677 20.796 38.7358 21.2642C39.204 21.7323 39.8379 21.9967 40.5 22C40.7652 22 41.0195 22.1054 41.2071 22.2929C41.3946 22.4805 41.5 22.7348 41.5 23Z" fill="#471515"/>
<path d="M58.2578 32H60.8477V24.5938H67.5156V22.543H60.8477V17.0234H68.5469V14.9375H58.2578V32ZM69.7422 26.1992C69.7422 28.0273 70.2734 29.5078 71.3359 30.6406C72.3984 31.7656 73.8086 32.3281 75.5664 32.3281C77.3242 32.3281 78.7344 31.7656 79.7969 30.6406C80.8594 29.5078 81.3906 28.0273 81.3906 26.1992V25.8242C81.3906 23.9883 80.8594 22.5078 79.7969 21.3828C78.7344 20.2578 77.3242 19.6953 75.5664 19.6953C73.8086 19.6953 72.3984 20.2578 71.3359 21.3828C70.2734 22.5078 69.7422 23.9883 69.7422 25.8242V26.1992ZM72.3086 25.7656C72.3086 24.5625 72.5859 23.582 73.1406 22.8242C73.6953 22.0586 74.5039 21.6758 75.5664 21.6758C76.6289 21.6758 77.4375 22.0586 77.9922 22.8242C78.5469 23.582 78.8242 24.5625 78.8242 25.7656V26.2461C78.8242 27.4492 78.5469 28.4336 77.9922 29.1992C77.4453 29.9648 76.6367 30.3477 75.5664 30.3477C74.5039 30.3477 73.6953 29.9648 73.1406 29.1992C72.5859 28.4336 72.3086 27.4531 72.3086 26.2578V25.7656ZM83.125 26.1992C83.125 28.043 83.6367 29.5273 84.6602 30.6523C85.6836 31.7695 87.0703 32.3281 88.8203 32.3281C90.4688 32.3281 91.7305 31.8984 92.6055 31.0391C93.4805 30.1719 93.918 29.1602 93.918 28.0039V27.8867H91.4805V27.9922C91.4727 28.6484 91.2578 29.207 90.8359 29.668C90.4141 30.1289 89.7422 30.3594 88.8203 30.3594C87.7656 30.3594 86.9805 29.9727 86.4648 29.1992C85.9492 28.4258 85.6914 27.4453 85.6914 26.2578V25.7539C85.6914 24.543 85.9531 23.5586 86.4766 22.8008C87 22.043 87.7852 21.6641 88.832 21.6641C89.7305 21.6641 90.3945 21.8906 90.8242 22.3438C91.2539 22.7969 91.4688 23.3516 91.4688 24.0078V24.1133H93.918L93.9062 23.9844C93.8906 22.8203 93.4531 21.8164 92.5938 20.9727C91.7344 20.1211 90.4766 19.6953 88.8203 19.6953C87.0703 19.6953 85.6836 20.2539 84.6602 21.3711C83.6367 22.4883 83.125 23.9727 83.125 25.8242V26.1992ZM96.0625 27.6875C96.0625 29.3203 96.4258 30.4883 97.1523 31.1914C97.8789 31.8867 98.8398 32.2344 100.035 32.2344C100.816 32.2344 101.52 32.0781 102.145 31.7656C102.777 31.4531 103.297 31.0195 103.703 30.4648H103.75L103.832 32H106.176V20.0234H103.656V28.332C103.391 28.8867 103.016 29.3398 102.531 29.6914C102.055 30.043 101.5 30.2188 100.867 30.2188C100.148 30.2188 99.5859 30.0273 99.1797 29.6445C98.7812 29.2617 98.582 28.6094 98.582 27.6875V20.0234H96.0625V27.6875ZM108.637 28.3555L108.648 28.4727C108.648 29.668 109.078 30.6094 109.938 31.2969C110.805 31.9844 112.055 32.3281 113.688 32.3281C115.328 32.3281 116.566 31.9883 117.402 31.3086C118.238 30.6289 118.656 29.7266 118.656 28.6016C118.656 27.5547 118.309 26.75 117.613 26.1875C116.918 25.6172 115.902 25.1797 114.566 24.875C113.301 24.5859 112.461 24.3164 112.047 24.0664C111.633 23.8164 111.426 23.4766 111.426 23.0469C111.426 22.6016 111.602 22.2461 111.953 21.9805C112.305 21.707 112.859 21.5703 113.617 21.5703C114.391 21.5703 114.965 21.7227 115.34 22.0273C115.715 22.3242 115.902 22.7578 115.902 23.3281V23.4805H118.363V23.3633C118.363 22.2227 117.93 21.3281 117.062 20.6797C116.203 20.0234 115.059 19.6953 113.629 19.6953C112.199 19.6953 111.062 20.0156 110.219 20.6562C109.375 21.2969 108.953 22.1406 108.953 23.1875C108.953 24.1719 109.305 24.9453 110.008 25.5078C110.719 26.0703 111.742 26.5039 113.078 26.8086C114.352 27.0977 115.184 27.375 115.574 27.6406C115.965 27.8984 116.16 28.2812 116.16 28.7891C116.16 29.2969 115.941 29.7031 115.504 30.0078C115.074 30.3047 114.465 30.4531 113.676 30.4531C112.895 30.4531 112.27 30.2969 111.801 29.9844C111.332 29.6641 111.098 29.168 111.098 28.4961V28.3672L108.637 28.3555Z" fill="#471515"/>
</svg>
