<svg width="190" height="48" viewBox="0 0 190 48" fill="none" xmlns="http://www.w3.org/2000/svg">
<rect x="1" y="1" width="188" height="46" rx="23" fill="#4CACFF" fill-opacity="0.15"/>
<rect x="1" y="1" width="188" height="46" rx="23" stroke="#153047" stroke-width="2"/>
<path d="M26 15V11C26 10.7348 26.1054 10.4804 26.2929 10.2929C26.4804 10.1054 26.7348 10 27 10C27.2652 10 27.5196 10.1054 27.7071 10.2929C27.8946 10.4804 28 10.7348 28 11V15C28 15.2652 27.8946 15.5196 27.7071 15.7071C27.5196 15.8946 27.2652 16 27 16C26.7348 16 26.4804 15.8946 26.2929 15.7071C26.1054 15.5196 26 15.2652 26 15ZM31 16C31.2652 16 31.5196 15.8946 31.7071 15.7071C31.8946 15.5196 32 15.2652 32 15V11C32 10.7348 31.8946 10.4804 31.7071 10.2929C31.5196 10.1054 31.2652 10 31 10C30.7348 10 30.4804 10.1054 30.2929 10.2929C30.1054 10.4804 30 10.7348 30 11V15C30 15.2652 30.1054 15.5196 30.2929 15.7071C30.4804 15.8946 30.7348 16 31 16ZM35 16C35.2652 16 35.5196 15.8946 35.7071 15.7071C35.8946 15.5196 36 15.2652 36 15V11C36 10.7348 35.8946 10.4804 35.7071 10.2929C35.5196 10.1054 35.2652 10 35 10C34.7348 10 34.4804 10.1054 34.2929 10.2929C34.1054 10.4804 34 10.7348 34 11V15C34 15.2652 34.1054 15.5196 34.2929 15.7071C34.4804 15.8946 34.7348 16 35 16ZM47 23V24C46.9993 25.2715 46.5142 26.495 45.6434 27.4215C44.7726 28.3481 43.5815 28.908 42.3125 28.9875C41.6237 30.9139 40.4634 32.6372 38.9375 34H42C42.2652 34 42.5196 34.1054 42.7071 34.2929C42.8946 34.4804 43 34.7348 43 35C43 35.2652 42.8946 35.5196 42.7071 35.7071C42.5196 35.8946 42.2652 36 42 36H20C19.7348 36 19.4804 35.8946 19.2929 35.7071C19.1054 35.5196 19 35.2652 19 35C19 34.7348 19.1054 34.4804 19.2929 34.2929C19.4804 34.1054 19.7348 34 20 34H23.0625C21.7882 32.8718 20.7673 31.4865 20.067 29.9352C19.3668 28.384 19.0032 26.702 19 25V19C19 18.7348 19.1054 18.4804 19.2929 18.2929C19.4804 18.1054 19.7348 18 20 18H42C43.3261 18 44.5979 18.5268 45.5355 19.4645C46.4732 20.4021 47 21.6739 47 23ZM41 20H21V25C21.0041 26.8772 21.5345 28.7157 22.531 30.3066C23.5275 31.8975 24.9502 33.1771 26.6375 34H35.3625C36.6229 33.384 37.7402 32.5107 38.6423 31.4364C39.5445 30.362 40.2114 29.1105 40.6 27.7625C40.6139 27.7397 40.6225 27.7141 40.625 27.6875C40.8763 26.8139 41.0025 25.909 41 25V20ZM45 23C44.9993 22.3802 44.8066 21.7758 44.4485 21.27C44.0904 20.7641 43.5844 20.3816 43 20.175V25C43.0008 25.628 42.9506 26.2551 42.85 26.875C43.4705 26.6917 44.015 26.3127 44.4025 25.7946C44.79 25.2765 44.9996 24.647 45 24V23Z" fill="#153047"/>
<path d="M57.8945 32V14.9375H60.4844V29.9141H68.1133V32H57.8945ZM69.4961 26.1992V25.8242C69.4961 23.9883 70.0273 22.5078 71.0898 21.3828C72.1523 20.2578 73.5625 19.6953 75.3203 19.6953C77.0781 19.6953 78.4883 20.2578 79.5508 21.3828C80.6133 22.5078 81.1445 23.9883 81.1445 25.8242V26.1992C81.1445 28.0273 80.6133 29.5078 79.5508 30.6406C78.4883 31.7656 77.0781 32.3281 75.3203 32.3281C73.5625 32.3281 72.1523 31.7656 71.0898 30.6406C70.0273 29.5078 69.4961 28.0273 69.4961 26.1992ZM72.0625 25.7656V26.2578C72.0625 27.4531 72.3398 28.4336 72.8945 29.1992C73.4492 29.9648 74.2578 30.3477 75.3203 30.3477C76.3906 30.3477 77.1992 29.9648 77.7461 29.1992C78.3008 28.4336 78.5781 27.4492 78.5781 26.2461V25.7656C78.5781 24.5625 78.3008 23.582 77.7461 22.8242C77.1914 22.0586 76.3828 21.6758 75.3203 21.6758C74.2578 21.6758 73.4492 22.0586 72.8945 22.8242C72.3398 23.582 72.0625 24.5625 72.0625 25.7656ZM83.582 32V20.0234H85.9258L85.9961 21.5469H86.0547C86.4375 21 86.9453 20.5703 87.5781 20.2578C88.2109 19.9375 88.918 19.7773 89.6992 19.7773C90.9023 19.7773 91.8672 20.1211 92.5938 20.8086C93.3281 21.4961 93.6953 22.6562 93.6953 24.2891V32H91.1758V24.3242C91.1758 23.418 90.9766 22.7734 90.5781 22.3906C90.1797 22.0078 89.6172 21.8164 88.8906 21.8164C88.2734 21.8164 87.7188 21.9883 87.2266 22.332C86.7422 22.6758 86.3672 23.1289 86.1016 23.6914V32H83.582ZM96.5664 35.457L97.8086 33.7109C98.1367 34.0469 98.6172 34.3594 99.25 34.6484C99.8828 34.9375 100.586 35.082 101.359 35.082C102.32 35.082 103.094 34.793 103.68 34.2148C104.273 33.6367 104.57 32.7695 104.57 31.6133V30.582C104.227 31.0742 103.758 31.4688 103.164 31.7656C102.578 32.0625 101.867 32.2109 101.031 32.2109C99.5156 32.2109 98.3008 31.6523 97.3867 30.5352C96.4805 29.4102 96.0273 27.9648 96.0273 26.1992V25.8242C96.0273 24.0586 96.4805 22.6133 97.3867 21.4883C98.293 20.3555 99.5117 19.7891 101.043 19.7891C101.848 19.7891 102.566 19.957 103.199 20.293C103.832 20.6289 104.297 21.0469 104.594 21.5469H104.652L104.723 20.0234H107.078V31.5312C107.078 33.3359 106.559 34.7148 105.52 35.668C104.488 36.6289 103.145 37.1094 101.488 37.1094C100.48 37.1094 99.5508 36.9531 98.6992 36.6406C97.8555 36.3281 97.1445 35.9336 96.5664 35.457ZM98.5938 26.2344C98.5938 27.3906 98.8438 28.3477 99.3438 29.1055C99.8438 29.8633 100.625 30.2422 101.688 30.2422C102.391 30.2422 102.992 30.0469 103.492 29.6562C103.992 29.2578 104.348 28.8086 104.559 28.3086V23.7148C104.34 23.1914 103.98 22.7383 103.48 22.3555C102.988 21.9648 102.387 21.7695 101.676 21.7695C100.621 21.7695 99.8438 22.1523 99.3438 22.918C98.8438 23.6758 98.5938 24.6328 98.5938 25.7891V26.2344ZM116.02 32V14.9375H121.75C123.461 14.9375 124.797 15.3008 125.758 16.0273C126.727 16.7539 127.211 17.8789 127.211 19.4023C127.211 20.3555 126.984 21.1367 126.531 21.7461C126.086 22.3477 125.527 22.7656 124.855 23V23.0469C125.684 23.2812 126.359 23.7422 126.883 24.4297C127.414 25.1172 127.68 26.0195 127.68 27.1367C127.68 28.6758 127.172 29.8711 126.156 30.7227C125.141 31.5742 123.785 32 122.09 32H116.02ZM118.574 30.0078H121.996C123.059 30.0078 123.84 29.7422 124.34 29.2109C124.848 28.6797 125.102 27.9609 125.102 27.0547C125.102 26.1484 124.848 25.4297 124.34 24.8984C123.84 24.3594 123.059 24.0898 121.996 24.0898H118.574V30.0078ZM118.574 22.1914H121.656C122.719 22.1914 123.484 21.957 123.953 21.4883C124.422 21.0195 124.656 20.3672 124.656 19.5312C124.656 18.6953 124.422 18.0586 123.953 17.6211C123.484 17.1758 122.719 16.9492 121.656 16.9414H118.574V22.1914ZM130.27 32V20.0234H132.625L132.695 21.5234H132.754C133.043 21.0312 133.43 20.6055 133.914 20.2461C134.406 19.8867 134.98 19.707 135.637 19.707C135.809 19.707 135.984 19.7266 136.164 19.7656C136.352 19.7969 136.484 19.8281 136.562 19.8594V22.0742C136.414 22.043 136.254 22.0195 136.082 22.0039C135.91 21.9805 135.723 21.9688 135.52 21.9688C134.895 21.9688 134.344 22.1445 133.867 22.4961C133.391 22.8477 133.035 23.293 132.801 23.832V32H130.27ZM137.465 26.1992V25.8242C137.465 23.9961 137.98 22.5195 139.012 21.3945C140.043 20.2617 141.395 19.6953 143.066 19.6953C144.738 19.6953 146.031 20.2266 146.945 21.2891C147.859 22.3438 148.316 23.7891 148.316 25.625V26.5625H139.035V24.793H145.809V24.5586C145.809 23.7617 145.582 23.0781 145.129 22.5078C144.676 21.9297 144 21.6406 143.102 21.6406C142.07 21.6406 141.293 22.0273 140.77 22.8008C140.254 23.5664 139.996 24.5469 139.996 25.7422V26.2461C139.996 27.4414 140.273 28.4297 140.828 29.2109C141.383 29.9844 142.219 30.3711 143.336 30.3711C144.055 30.3711 144.672 30.2109 145.188 29.8906C145.711 29.5625 146.133 29.1719 146.453 28.7188L148.188 29.9023C147.82 30.543 147.223 31.1094 146.395 31.6016C145.566 32.0859 144.551 32.3281 143.348 32.3281C141.473 32.3281 140.023 31.7656 139 30.6406C137.977 29.5078 137.465 28.0273 137.465 26.1992ZM150.004 28.4961C150.004 27.2617 150.488 26.3047 151.457 25.625C152.434 24.9453 153.684 24.6055 155.207 24.6055H157.855V23.7617C157.855 23.0898 157.68 22.5547 157.328 22.1562C156.984 21.75 156.391 21.5469 155.547 21.5469C154.711 21.5469 154.105 21.7148 153.73 22.0508C153.355 22.3867 153.168 22.8008 153.168 23.293V23.4336H150.695V23.2695C150.695 22.2773 151.141 21.4336 152.031 20.7383C152.93 20.043 154.133 19.6953 155.641 19.6953C157.141 19.6953 158.305 20.0312 159.133 20.7031C159.961 21.3672 160.375 22.3945 160.375 23.7852V29.2227C160.375 29.7227 160.414 30.1992 160.492 30.6523C160.57 31.0977 160.684 31.4844 160.832 31.8125V32H158.383C158.273 31.8047 158.176 31.5586 158.09 31.2617C158.012 30.957 157.961 30.6523 157.938 30.3477C157.664 30.832 157.203 31.2656 156.555 31.6484C155.914 32.0234 155.094 32.2109 154.094 32.2109C152.93 32.2109 151.957 31.8984 151.176 31.2734C150.395 30.6406 150.004 29.7148 150.004 28.4961ZM152.523 28.332C152.523 28.9727 152.707 29.4727 153.074 29.832C153.449 30.1914 154.023 30.3711 154.797 30.3711C155.594 30.3711 156.301 30.1016 156.918 29.5625C157.543 29.0234 157.855 28.4297 157.855 27.7812V26.2578H155.582C154.559 26.2578 153.793 26.4414 153.285 26.8086C152.777 27.1758 152.523 27.6836 152.523 28.332ZM163.504 32V14.2227H166.023V25.1094L170.734 20.0234H173.582L166.023 28.0391V32H163.504ZM171.18 32L166.703 25.9297L168.285 24.1719L174.133 32H171.18Z" fill="#153047"/>
</svg>
