<svg width="195" height="48" viewBox="0 0 195 48" fill="none" xmlns="http://www.w3.org/2000/svg">
<rect x="1" y="1" width="193" height="46" rx="23" fill="#4DDA6E" fill-opacity="0.15"/>
<rect x="1" y="1" width="193" height="46" rx="23" stroke="#14401D" stroke-width="2"/>
<path d="M26 15V11C26 10.7348 26.1054 10.4804 26.2929 10.2929C26.4804 10.1054 26.7348 10 27 10C27.2652 10 27.5196 10.1054 27.7071 10.2929C27.8946 10.4804 28 10.7348 28 11V15C28 15.2652 27.8946 15.5196 27.7071 15.7071C27.5196 15.8946 27.2652 16 27 16C26.7348 16 26.4804 15.8946 26.2929 15.7071C26.1054 15.5196 26 15.2652 26 15ZM31 16C31.2652 16 31.5196 15.8946 31.7071 15.7071C31.8946 15.5196 32 15.2652 32 15V11C32 10.7348 31.8946 10.4804 31.7071 10.2929C31.5196 10.1054 31.2652 10 31 10C30.7348 10 30.4804 10.1054 30.2929 10.2929C30.1054 10.4804 30 10.7348 30 11V15C30 15.2652 30.1054 15.5196 30.2929 15.7071C30.4804 15.8946 30.7348 16 31 16ZM35 16C35.2652 16 35.5196 15.8946 35.7071 15.7071C35.8946 15.5196 36 15.2652 36 15V11C36 10.7348 35.8946 10.4804 35.7071 10.2929C35.5196 10.1054 35.2652 10 35 10C34.7348 10 34.4804 10.1054 34.2929 10.2929C34.1054 10.4804 34 10.7348 34 11V15C34 15.2652 34.1054 15.5196 34.2929 15.7071C34.4804 15.8946 34.7348 16 35 16ZM47 23V24C46.9993 25.2715 46.5142 26.495 45.6434 27.4215C44.7726 28.3481 43.5815 28.908 42.3125 28.9875C41.6237 30.9139 40.4634 32.6372 38.9375 34H42C42.2652 34 42.5196 34.1054 42.7071 34.2929C42.8946 34.4804 43 34.7348 43 35C43 35.2652 42.8946 35.5196 42.7071 35.7071C42.5196 35.8946 42.2652 36 42 36H20C19.7348 36 19.4804 35.8946 19.2929 35.7071C19.1054 35.5196 19 35.2652 19 35C19 34.7348 19.1054 34.4804 19.2929 34.2929C19.4804 34.1054 19.7348 34 20 34H23.0625C21.7882 32.8718 20.7673 31.4865 20.067 29.9352C19.3668 28.384 19.0032 26.702 19 25V19C19 18.7348 19.1054 18.4804 19.2929 18.2929C19.4804 18.1054 19.7348 18 20 18H42C43.3261 18 44.5979 18.5268 45.5355 19.4645C46.4732 20.4021 47 21.6739 47 23ZM41 20H21V25C21.0041 26.8772 21.5345 28.7157 22.531 30.3066C23.5275 31.8975 24.9502 33.1771 26.6375 34H35.3625C36.6229 33.384 37.7402 32.5107 38.6423 31.4364C39.5445 30.362 40.2114 29.1105 40.6 27.7625C40.6139 27.7397 40.6225 27.7141 40.625 27.6875C40.8763 26.8139 41.0025 25.909 41 25V20ZM45 23C44.9993 22.3802 44.8066 21.7758 44.4485 21.27C44.0904 20.7641 43.5844 20.3816 43 20.175V25C43.0008 25.628 42.9506 26.2551 42.85 26.875C43.4705 26.6917 44.015 26.3127 44.4025 25.7946C44.79 25.2765 44.9996 24.647 45 24V23Z" fill="#14401D"/>
<path d="M57.3828 27.3125C57.3828 28.9062 57.9492 30.1406 59.082 31.0156C60.2148 31.8906 61.707 32.3281 63.5586 32.3281C65.4023 32.3281 66.8711 31.8867 67.9648 31.0039C69.0586 30.1133 69.6055 28.9336 69.6055 27.4648C69.6055 26.043 69.1836 24.9375 68.3398 24.1484C67.4961 23.3594 66.1953 22.707 64.4375 22.1914C62.75 21.6914 61.6328 21.2422 61.0859 20.8438C60.5469 20.4375 60.2773 19.8789 60.2773 19.168C60.2773 18.4102 60.5312 17.8086 61.0391 17.3633C61.5547 16.918 62.3594 16.6953 63.4531 16.6953C64.5312 16.6953 65.3438 16.957 65.8906 17.4805C66.4375 17.9961 66.7109 18.6875 66.7109 19.5547V19.8125H69.2773V19.5195C69.2773 18.0508 68.7461 16.8672 67.6836 15.9688C66.6289 15.0625 65.2148 14.6094 63.4414 14.6094C61.6602 14.6094 60.2578 15.0469 59.2344 15.9219C58.2109 16.7969 57.6992 17.9258 57.6992 19.3086C57.6992 20.6602 58.1055 21.7109 58.918 22.4609C59.7305 23.2031 61.0273 23.8359 62.8086 24.3594C64.4805 24.8594 65.6016 25.332 66.1719 25.7773C66.7422 26.2148 67.0273 26.8125 67.0273 27.5703C67.0273 28.375 66.7266 29.0234 66.125 29.5156C65.5312 30.0078 64.6719 30.2539 63.5469 30.2539C62.4219 30.2539 61.543 30.0078 60.9102 29.5156C60.2852 29.0156 59.9727 28.2695 59.9727 27.2773V26.9727H57.3828V27.3125ZM72.0547 32H74.5742V23.7148C74.832 23.1445 75.1953 22.6875 75.6641 22.3438C76.1406 21.9922 76.6953 21.8164 77.3281 21.8164C78.0547 21.8164 78.6211 22.0117 79.0273 22.4023C79.4336 22.793 79.6367 23.4453 79.6367 24.3594V32H82.1562V24.2422C82.1562 22.6484 81.7969 21.5078 81.0781 20.8203C80.3594 20.125 79.4336 19.7773 78.3008 19.7773C77.4805 19.7773 76.75 19.9414 76.1094 20.2695C75.4688 20.5898 74.9531 21.0195 74.5625 21.5586V14.2227H72.0547V32ZM84.5 26.1992C84.5 28.0273 85.0312 29.5078 86.0938 30.6406C87.1562 31.7656 88.5664 32.3281 90.3242 32.3281C92.082 32.3281 93.4922 31.7656 94.5547 30.6406C95.6172 29.5078 96.1484 28.0273 96.1484 26.1992V25.8242C96.1484 23.9883 95.6172 22.5078 94.5547 21.3828C93.4922 20.2578 92.082 19.6953 90.3242 19.6953C88.5664 19.6953 87.1562 20.2578 86.0938 21.3828C85.0312 22.5078 84.5 23.9883 84.5 25.8242V26.1992ZM87.0664 25.7656C87.0664 24.5625 87.3438 23.582 87.8984 22.8242C88.4531 22.0586 89.2617 21.6758 90.3242 21.6758C91.3867 21.6758 92.1953 22.0586 92.75 22.8242C93.3047 23.582 93.582 24.5625 93.582 25.7656V26.2461C93.582 27.4492 93.3047 28.4336 92.75 29.1992C92.2031 29.9648 91.3945 30.3477 90.3242 30.3477C89.2617 30.3477 88.4531 29.9648 87.8984 29.1992C87.3438 28.4336 87.0664 27.4531 87.0664 26.2578V25.7656ZM98.5859 32H101.117V23.832C101.352 23.293 101.707 22.8477 102.184 22.4961C102.66 22.1445 103.211 21.9688 103.836 21.9688C104.039 21.9688 104.227 21.9805 104.398 22.0039C104.57 22.0195 104.73 22.043 104.879 22.0742V19.8594C104.801 19.8281 104.668 19.7969 104.48 19.7656C104.301 19.7266 104.125 19.707 103.953 19.707C103.297 19.707 102.723 19.8867 102.23 20.2461C101.746 20.6055 101.359 21.0312 101.07 21.5234H101.012L100.941 20.0234H98.5859V32ZM105.746 21.9336H112.824V20.0234H105.746V21.9336ZM107.773 28.7773C107.773 30.0195 108.059 30.9219 108.629 31.4844C109.207 32.0469 109.977 32.3281 110.938 32.3281C111.336 32.3281 111.695 32.293 112.016 32.2227C112.336 32.1602 112.594 32.0859 112.789 32V30.0547C112.594 30.1328 112.398 30.1914 112.203 30.2305C112.008 30.2695 111.809 30.2891 111.605 30.2891C111.16 30.2891 110.828 30.1758 110.609 29.9492C110.391 29.7227 110.281 29.3008 110.281 28.6836V16.8008H107.785V20.7031L107.773 20.9961V28.7773ZM120.688 32H126.758C128.453 32 129.809 31.5742 130.824 30.7227C131.84 29.8711 132.348 28.6758 132.348 27.1367C132.348 26.0195 132.082 25.1172 131.551 24.4297C131.027 23.7422 130.352 23.2812 129.523 23.0469V23C130.195 22.7656 130.754 22.3477 131.199 21.7461C131.652 21.1367 131.879 20.3555 131.879 19.4023C131.879 17.8789 131.395 16.7539 130.426 16.0273C129.465 15.3008 128.129 14.9375 126.418 14.9375H120.688V32ZM123.242 30.0078V24.0898H126.664C127.727 24.0898 128.508 24.3594 129.008 24.8984C129.516 25.4297 129.77 26.1484 129.77 27.0547C129.77 27.9609 129.516 28.6797 129.008 29.2109C128.508 29.7422 127.727 30.0078 126.664 30.0078H123.242ZM123.242 22.1914V16.9414H126.324C127.387 16.9492 128.152 17.1758 128.621 17.6211C129.09 18.0586 129.324 18.6953 129.324 19.5312C129.324 20.3672 129.09 21.0195 128.621 21.4883C128.152 21.957 127.387 22.1914 126.324 22.1914H123.242ZM134.938 32H137.469V23.832C137.703 23.293 138.059 22.8477 138.535 22.4961C139.012 22.1445 139.562 21.9688 140.188 21.9688C140.391 21.9688 140.578 21.9805 140.75 22.0039C140.922 22.0195 141.082 22.043 141.23 22.0742V19.8594C141.152 19.8281 141.02 19.7969 140.832 19.7656C140.652 19.7266 140.477 19.707 140.305 19.707C139.648 19.707 139.074 19.8867 138.582 20.2461C138.098 20.6055 137.711 21.0312 137.422 21.5234H137.363L137.293 20.0234H134.938V32ZM142.133 26.1992C142.133 28.0273 142.645 29.5078 143.668 30.6406C144.691 31.7656 146.141 32.3281 148.016 32.3281C149.219 32.3281 150.234 32.0859 151.062 31.6016C151.891 31.1094 152.488 30.543 152.855 29.9023L151.121 28.7188C150.801 29.1719 150.379 29.5625 149.855 29.8906C149.34 30.2109 148.723 30.3711 148.004 30.3711C146.887 30.3711 146.051 29.9844 145.496 29.2109C144.941 28.4297 144.664 27.4414 144.664 26.2461V25.7422C144.664 24.5469 144.922 23.5664 145.438 22.8008C145.961 22.0273 146.738 21.6406 147.77 21.6406C148.668 21.6406 149.344 21.9297 149.797 22.5078C150.25 23.0781 150.477 23.7617 150.477 24.5586V24.793H143.703V26.5625H152.984V25.625C152.984 23.7891 152.527 22.3438 151.613 21.2891C150.699 20.2266 149.406 19.6953 147.734 19.6953C146.062 19.6953 144.711 20.2617 143.68 21.3945C142.648 22.5195 142.133 23.9961 142.133 25.8242V26.1992ZM154.672 28.4961C154.672 29.7148 155.062 30.6406 155.844 31.2734C156.625 31.8984 157.598 32.2109 158.762 32.2109C159.762 32.2109 160.582 32.0234 161.223 31.6484C161.871 31.2656 162.332 30.832 162.605 30.3477C162.629 30.6523 162.68 30.957 162.758 31.2617C162.844 31.5586 162.941 31.8047 163.051 32H165.5V31.8125C165.352 31.4844 165.238 31.0977 165.16 30.6523C165.082 30.1992 165.043 29.7227 165.043 29.2227V23.7852C165.043 22.3945 164.629 21.3672 163.801 20.7031C162.973 20.0312 161.809 19.6953 160.309 19.6953C158.801 19.6953 157.598 20.043 156.699 20.7383C155.809 21.4336 155.363 22.2773 155.363 23.2695V23.4336H157.836V23.293C157.836 22.8008 158.023 22.3867 158.398 22.0508C158.773 21.7148 159.379 21.5469 160.215 21.5469C161.059 21.5469 161.652 21.75 161.996 22.1562C162.348 22.5547 162.523 23.0898 162.523 23.7617V24.6055H159.875C158.352 24.6055 157.102 24.9453 156.125 25.625C155.156 26.3047 154.672 27.2617 154.672 28.4961ZM157.191 28.332C157.191 27.6836 157.445 27.1758 157.953 26.8086C158.461 26.4414 159.227 26.2578 160.25 26.2578H162.523V27.7812C162.523 28.4297 162.211 29.0234 161.586 29.5625C160.969 30.1016 160.262 30.3711 159.465 30.3711C158.691 30.3711 158.117 30.1914 157.742 29.832C157.375 29.4727 157.191 28.9727 157.191 28.332ZM168.172 32H170.691V28.0391L178.25 20.0234H175.402L170.691 25.1094V14.2227H168.172V32ZM175.848 32H178.801L172.953 24.1719L171.371 25.9297L175.848 32Z" fill="#14401D"/>
</svg>
